<svg width="32" height="32" viewBox="0 0 32 32" fill="none" xmlns="http://www.w3.org/2000/svg">
<path fill-rule="evenodd" clip-rule="evenodd" d="M25.5 15C27.433 15 29 13.433 29 11.5L29 6.5C29 4.567 27.433 2.99999 25.5 2.99999L20.5 2.99999C18.567 2.99999 17 4.567 17 6.5L17 11.5C17 13.433 18.567 15 20.5 15L25.5 15ZM26 11.5C26 11.7761 25.7761 12 25.5 12L20.5 12C20.2239 12 20 11.7761 20 11.5L20 6.5C20 6.22385 20.2239 6 20.5 6L25.5 6C25.7761 6 26 6.22385 26 6.5L26 11.5Z" fill="#C9D1D9"/>
<path fill-rule="evenodd" clip-rule="evenodd" d="M25.5 29C27.433 29 29 27.433 29 25.5L29 20.5C29 18.567 27.433 17 25.5 17L20.5 17C18.567 17 17 18.567 17 20.5L17 25.5C17 27.433 18.567 29 20.5 29L25.5 29ZM26 25.5C26 25.7761 25.7761 26 25.5 26L20.5 26C20.2239 26 20 25.7761 20 25.5L20 20.5C20 20.2239 20.2239 20 20.5 20L25.5 20C25.7761 20 26 20.2239 26 20.5L26 25.5Z" fill="#C9D1D9"/>
<path fill-rule="evenodd" clip-rule="evenodd" d="M15 25.5C15 27.433 13.433 29 11.5 29L6.49999 29C4.567 29 3 27.433 3 25.5L3 20.5C3 18.567 4.567 17 6.5 17L11.5 17C13.433 17 15 18.567 15 20.5L15 25.5ZM11.5 26C11.7761 26 12 25.7761 12 25.5L12 20.5C12 20.2239 11.7761 20 11.5 20L6.5 20C6.22385 20 6 20.2239 6 20.5L6 25.5C6 25.7761 6.22385 26 6.49999 26L11.5 26Z" fill="#C9D1D9"/>
<path fill-rule="evenodd" clip-rule="evenodd" d="M11.5 15C13.433 15 15 13.433 15 11.5L15 6.5C15 4.567 13.433 2.99999 11.5 2.99999L6.5 2.99999C4.567 2.99999 3 4.567 3 6.49999L3 11.5C3 13.433 4.567 15 6.5 15L11.5 15ZM12 11.5C12 11.7761 11.7761 12 11.5 12L6.5 12C6.22386 12 6 11.7761 6 11.5L6 6.49999C6 6.22385 6.22386 5.99999 6.5 5.99999L11.5 5.99999C11.7761 5.99999 12 6.22385 12 6.5L12 11.5Z" fill="#C9D1D9"/>
</svg>
