<svg width="32" height="32" viewBox="0 0 32 32" fill="none" xmlns="http://www.w3.org/2000/svg">
<path d="M12.7089 16.0802L3.16297 25.6262C2.57719 26.212 2.57719 27.1617 3.16297 27.7475C3.74876 28.3333 4.69851 28.3333 5.28429 27.7475L15.8909 17.1409C16.4767 16.5551 16.4767 15.6054 15.8909 15.0196L5.28429 4.41297C4.69851 3.82719 3.74876 3.82719 3.16297 4.41297C2.57719 4.99876 2.57719 5.94851 3.16297 6.53429L12.7089 16.0802Z" fill="#C9D1D9"/>
<path d="M17.5003 23.0002C16.6718 23.0002 16.0003 23.6718 16.0003 24.5002C16.0003 25.3286 16.6718 26.0002 17.5003 26.0002H28.5003C29.3287 26.0002 30.0003 25.3286 30.0003 24.5002C30.0003 23.6718 29.3287 23.0002 28.5003 23.0002H17.5003Z" fill="#C9D1D9"/>
</svg>
