<svg width="32" height="32" viewBox="0 0 32 32" fill="none" xmlns="http://www.w3.org/2000/svg">
<g clip-path="url(#clip0_1493_7686)">
<path fill-rule="evenodd" clip-rule="evenodd" d="M8 3.5C8 1.567 9.567 0 11.5 0H22.6716C23.5998 0 24.49 0.368748 25.1464 1.02513L30.9748 6.85356C31.6312 7.50994 32 8.40016 32 9.32842V26.5C32 28.433 30.433 30 28.5 30H10.5C9.67158 30 9 29.3284 9 28.5C9 27.6716 9.67158 27 10.5 27H28.5C28.7762 27 29 26.7762 29 26.5V12H23.5C21.567 12 20 10.433 20 8.5V3H11.5C11.2239 3 11 3.22386 11 3.5V8.5C11 9.32842 10.3284 10 9.5 10C8.67158 10 8 9.32842 8 8.5V3.5ZM23 3.123V8.5C23 8.77614 23.2238 9 23.5 9H28.877C28.8696 8.99138 28.8616 8.983 28.8536 8.97488L23.0252 3.14644C23.017 3.13832 23.0086 3.1305 23 3.123ZM11.4393 13.4393C10.8536 14.0251 10.8536 14.9749 11.4393 15.5607L14.3787 18.5L11.4393 21.4394C10.8536 22.0252 10.8536 22.9748 11.4393 23.5606C12.0251 24.1464 12.9749 24.1464 13.5607 23.5606L17.5607 19.5607C18.1464 18.9749 18.1464 18.0251 17.5607 17.4393L13.5607 13.4393C12.9749 12.8536 12.0251 12.8536 11.4393 13.4393ZM6.56066 15.5607C7.14644 14.9749 7.14644 14.0251 6.56066 13.4393C5.97488 12.8536 5.02512 12.8536 4.43934 13.4393L0.43934 17.4393C-0.146447 18.0251 -0.146447 18.9749 0.43934 19.5607L4.43934 23.5606C5.02512 24.1464 5.97488 24.1464 6.56066 23.5606C7.14644 22.9748 7.14644 22.0252 6.56066 21.4394L3.62132 18.5L6.56066 15.5607Z" fill="#C9D1D9"/>
</g>
<defs>
<clipPath id="clip0_1493_7686">
<rect width="32" height="32" fill="white"/>
</clipPath>
</defs>
</svg>
