<svg width="24" height="24" viewBox="0 0 24 24" fill="none" xmlns="http://www.w3.org/2000/svg">

<path d="M19.0409 19.0413H16.0776V14.4004C16.0776 13.2937 16.0578 11.8691 14.5363 11.8691C12.9929 11.8691 12.7567 13.0749 12.7567 14.3198V19.041H9.79337V9.49745H12.6382V10.8017H12.678C13.2581 9.80983 14.3367 9.21744 15.4849 9.26007C18.4884 9.26007 19.0422 11.2357 19.0422 13.8059L19.0409 19.0413ZM6.44969 8.19292C5.49994 8.19309 4.72987 7.42328 4.7297 6.47351C4.72953 5.52373 5.49932 4.75365 6.44907 4.75348C7.39883 4.75331 8.1689 5.52311 8.16907 6.47289C8.16915 6.92899 7.98805 7.36644 7.6656 7.68901C7.34316 8.01157 6.90578 8.19284 6.44969 8.19292ZM7.93138 19.0413H4.96492V9.49745H7.93138V19.0413ZM20.5183 2.00149H3.47582C2.67036 1.9924 2.00983 2.63761 2 3.44308V20.5566C2.00949 21.3625 2.66997 22.0083 3.47582 21.9999H20.5183C21.3258 22.0099 21.9888 21.3641 22 20.5566V3.44185C21.9885 2.63478 21.3254 1.98961 20.5183 2.00013" fill="#A1A1AA"/>
</svg>
