<svg width="24" height="24" viewBox="0 0 24 24" fill="none" xmlns="http://www.w3.org/2000/svg">
  <path d="M12.0001 2C6.47791 2 2 6.59039 2 12.2532C2 16.7833 4.86533 20.6266 8.83867 21.9824C9.33844 22.0773 9.52192 21.76 9.52192 21.4891C9.52192 21.2446 9.51265 20.437 9.50834 19.5802C6.72631 20.2005 6.13927 18.3705 6.13927 18.3705C5.68437 17.1853 5.02894 16.8702 5.02894 16.8702C4.12163 16.2339 5.09733 16.2469 5.09733 16.2469C6.10151 16.3193 6.63026 17.3035 6.63026 17.3035C7.52217 18.871 8.96965 18.4178 9.5403 18.1559C9.63006 17.4932 9.88922 17.0409 10.1752 16.7848C7.95405 16.5256 5.61913 15.6464 5.61913 11.7177C5.61913 10.5982 6.00977 9.6836 6.64947 8.96556C6.54564 8.70731 6.20335 7.66448 6.74635 6.25218C6.74635 6.25218 7.58609 5.97661 9.49708 7.30317C10.2948 7.07599 11.1502 6.96206 12.0001 6.95816C12.8499 6.96206 13.7061 7.07599 14.5052 7.30317C16.4139 5.97661 17.2525 6.25218 17.2525 6.25218C17.7968 7.66448 17.4544 8.70731 17.3505 8.96556C17.9917 9.6836 18.3797 10.5982 18.3797 11.7177C18.3797 15.6557 16.0403 16.5228 13.8135 16.7767C14.1722 17.0949 14.4918 17.7188 14.4918 18.6754C14.4918 20.0473 14.4802 21.1514 14.4802 21.4891C14.4802 21.762 14.6602 22.0817 15.1671 21.981C19.1383 20.6237 22 16.7818 22 12.2532C22 6.59039 17.5227 2 12.0001 2ZM5.74536 16.6059C5.72333 16.6568 5.64517 16.6721 5.57396 16.6371C5.50143 16.6037 5.46069 16.5342 5.48421 16.4831C5.50574 16.4306 5.58406 16.416 5.65643 16.4512C5.72913 16.4846 5.77053 16.5548 5.74536 16.6059ZM6.23725 17.0559C6.18956 17.1012 6.09633 17.0802 6.03307 17.0085C5.96766 16.937 5.9554 16.8414 6.00376 16.7954C6.05294 16.7501 6.14336 16.7713 6.20893 16.8428C6.27434 16.9151 6.28709 17.01 6.23725 17.0559ZM6.57471 17.6317C6.51344 17.6753 6.41325 17.6344 6.35132 17.5432C6.29004 17.452 6.29004 17.3427 6.35264 17.2989C6.41474 17.2551 6.51344 17.2945 6.5762 17.385C6.6373 17.4777 6.6373 17.587 6.57471 17.6317ZM7.14542 18.2985C7.09061 18.3605 6.97386 18.3438 6.88841 18.2593C6.80098 18.1766 6.77663 18.0593 6.83161 17.9973C6.88709 17.9352 7.0045 17.9526 7.09061 18.0365C7.17738 18.119 7.20387 18.2372 7.14542 18.2985ZM7.88301 18.5236C7.85883 18.6039 7.74639 18.6404 7.63312 18.6063C7.52002 18.5712 7.446 18.4771 7.46885 18.3959C7.49237 18.3151 7.6053 18.2771 7.7194 18.3136C7.83234 18.3486 7.90652 18.4419 7.88301 18.5236ZM8.72242 18.6191C8.72523 18.7037 8.62919 18.7738 8.51029 18.7753C8.39073 18.778 8.29402 18.7096 8.29269 18.6264C8.29269 18.541 8.38659 18.4716 8.50615 18.4695C8.62505 18.4671 8.72242 18.5351 8.72242 18.6191ZM9.54704 18.5867C9.56128 18.6692 9.47865 18.7539 9.36058 18.7765C9.2445 18.7982 9.13702 18.7473 9.12229 18.6655C9.10788 18.5809 9.192 18.4962 9.30792 18.4743C9.42616 18.4532 9.53197 18.5028 9.54704 18.5867Z" fill="#A1A1AA"/>
</svg>
