<svg width="24" height="24" viewBox="0 0 24 24" fill="none" xmlns="http://www.w3.org/2000/svg">

<path d="M22 6.01243C21.2641 6.35376 20.4733 6.58445 19.6433 6.68821C20.4905 6.15704 21.1411 5.31599 21.4475 4.31387C20.6547 4.80563 19.7765 5.1628 18.8419 5.35531C18.0933 4.52122 17.027 4 15.8468 4C13.5807 4 11.7434 5.92153 11.7434 8.29159C11.7434 8.62795 11.7798 8.95551 11.8497 9.2696C8.43952 9.09063 5.41607 7.38205 3.3923 4.78558C3.0391 5.41943 2.83675 6.15666 2.83675 6.94316C2.83675 8.43207 3.56121 9.74568 4.6622 10.5153C3.98954 10.493 3.35689 10.3 2.80361 9.97852C2.80332 9.99642 2.80332 10.0144 2.80332 10.0325C2.80332 12.1118 4.21771 13.8464 6.09481 14.2406C5.75047 14.3387 5.38798 14.3911 5.01372 14.3911C4.74933 14.3911 4.49226 14.3643 4.24178 14.3142C4.76389 16.0192 6.27923 17.26 8.07476 17.2947C6.67047 18.4457 4.9012 19.1318 2.97882 19.1318C2.64765 19.1318 2.32101 19.1115 2 19.0719C3.81587 20.2896 5.97271 21 8.28992 21C15.8372 21 19.9644 14.4605 19.9644 8.78924C19.9644 8.60316 19.9604 8.41807 19.9525 8.23405C20.7542 7.62896 21.4499 6.87307 22 6.01243Z" fill="#A1A1AA"/>
</svg>
