<svg width="33" height="32" viewBox="0 0 33 32" fill="none" xmlns="http://www.w3.org/2000/svg">
<path fill-rule="evenodd" clip-rule="evenodd" d="M29.1278 0C24.4866 0.000195553 20.0355 1.84407 16.7537 5.126L15.8357 6.042C15.2077 6.67 14.6037 7.324 14.0277 8L7.61974 8C7.0221 8.00018 6.43448 8.15338 5.91282 8.445C5.39118 8.73664 4.9529 9.15698 4.63974 9.666L1.21974 15.214C1.09968 15.409 1.02587 15.6289 1.00396 15.8568C0.98204 16.0848 1.0126 16.3147 1.09331 16.529C1.17401 16.7433 1.3027 16.9363 1.46953 17.0932C1.63635 17.25 1.83688 17.3666 2.05574 17.434L8.25974 19.342C8.33374 19.444 8.41774 19.542 8.50774 19.632L13.3657 24.488C13.4577 24.58 13.5537 24.664 13.6557 24.738L15.5637 30.942C15.6311 31.1608 15.7477 31.3614 15.9046 31.5282C16.0614 31.695 16.2544 31.8238 16.4687 31.9044C16.683 31.9852 16.913 32.0156 17.1409 31.9938C17.3688 31.9718 17.5887 31.898 17.7837 31.778L23.3318 28.364C23.8408 28.0508 24.2612 27.6126 24.5528 27.091C24.8444 26.5692 24.9976 25.9816 24.9978 25.384V18.97C25.6738 18.394 26.3278 17.79 26.9558 17.162L27.8718 16.244C31.154 12.9631 32.9986 8.5128 32.9998 3.872V3.5C32.9998 2.57174 32.631 1.6815 31.9746 1.02513C31.3182 0.368748 30.428 0 29.4998 0L29.1278 0ZM21.9998 21.25C21.8238 21.37 21.6458 21.486 21.4678 21.6L16.7677 24.642L17.8637 28.208L21.7618 25.808C21.8346 25.7632 21.8946 25.7006 21.9362 25.626C21.978 25.5514 21.9998 25.4674 21.9998 25.382V21.25ZM8.35574 16.232L11.3997 11.532C11.5157 11.352 11.6337 11.176 11.7517 11L7.61774 11C7.53232 11 7.4483 11.0218 7.37374 11.0635C7.29916 11.1052 7.2365 11.1652 7.19174 11.238L4.79174 15.138L8.35574 16.232ZM18.8757 7.246C21.5944 4.52782 25.2814 3.00056 29.1258 3H29.4978C29.6304 3 29.7576 3.05268 29.8514 3.14644C29.9452 3.24022 29.9978 3.3674 29.9978 3.5V3.872C29.998 5.77626 29.6232 7.66192 28.8946 9.42132C28.1662 11.1807 27.0982 12.7794 25.7518 14.126L24.8338 15.042C23.3138 16.562 21.6398 17.916 19.8357 19.082L15.2017 22.082L10.9157 17.796L13.9157 13.162C15.0825 11.3577 16.4367 9.6817 17.9557 8.162L18.8717 7.246H18.8757ZM24.9998 10C24.9998 10.5304 24.789 11.0391 24.414 11.4142C24.039 11.7893 23.5302 12 22.9998 12C22.4694 12 21.9606 11.7893 21.5856 11.4142C21.2104 11.0391 20.9997 10.5304 20.9997 10C20.9997 9.46956 21.2104 8.96086 21.5856 8.58578C21.9606 8.21072 22.4694 8 22.9998 8C23.5302 8 24.039 8.21072 24.414 8.58578C24.789 8.96086 24.9998 9.46956 24.9998 10ZM8.11974 29.12C8.41448 28.8454 8.6509 28.5142 8.81486 28.1462C8.97884 27.7782 9.067 27.381 9.0741 26.978C9.08122 26.5752 9.00712 26.1752 8.85624 25.8016C8.70534 25.428 8.48076 25.0888 8.1959 24.8038C7.91102 24.519 7.57168 24.2944 7.19814 24.1436C6.82458 23.9926 6.42446 23.9186 6.02166 23.9256C5.61884 23.9328 5.22158 24.021 4.85358 24.1848C4.4856 24.3488 4.15438 24.5852 3.87974 24.88C2.41174 26.34 1.78574 29.544 1.57974 30.886C1.56756 30.9584 1.57285 31.0326 1.59518 31.1024C1.6175 31.1722 1.65621 31.2358 1.70808 31.2876C1.75995 31.3396 1.82347 31.3782 1.89334 31.4006C1.96321 31.4228 2.0374 31.4282 2.10974 31.416C3.45174 31.21 6.65574 30.584 8.11974 29.12Z" fill="#C9D1D9"/>
</svg>
